<svg xmlns="http://www.w3.org/2000/svg" width="128" height="128" viewBox="0 0 128 128">
  <title>Refresh</title>
  <path fill="#FFFE" d="M114,15.25H14A9.761,9.761,0,0,0,4.25,25v77A10.762,10.762,0,0,0,15,112.75h98A10.762,10.762,0,0,0,123.75,102V25A9.761,9.761,0,0,0,114,15.25ZM120.25,25V36.683H52.888L61.37,18.75H114A6.257,6.257,0,0,1,120.25,25ZM14,18.75H57.5L49.016,36.683H7.75V25A6.257,6.257,0,0,1,14,18.75Zm99,90.5H15A7.258,7.258,0,0,1,7.75,102V40.183h112.5V102A7.258,7.258,0,0,1,113,109.25Z"/>
  <path fill="#FFFE" d="M21.57,33.466a5.75,5.75,0,1,0-5.75-5.75A5.756,5.756,0,0,0,21.57,33.466Zm0-8a2.25,2.25,0,1,1-2.25,2.25A2.253,2.253,0,0,1,21.57,25.466Z"/>
  <path fill="#FFFE" d="M37.626,33.466a5.75,5.75,0,1,0-5.75-5.75A5.756,5.756,0,0,0,37.626,33.466Zm0-8a2.25,2.25,0,1,1-2.25,2.25A2.253,2.253,0,0,1,37.626,25.466Z"/>
  <path fill="#FFFE" d="M67.522,29.466h44.745a1.75,1.75,0,0,0,0-3.5H67.522a1.75,1.75,0,0,0,0,3.5Z"/>
  <path fill="#FFFE" d="M87.3,80.521A1.751,1.751,0,0,0,85.1,81.64a22.185,22.185,0,0,1-40.463,3.881l6.238,2.652a1.749,1.749,0,1,0,1.369-3.22l-10.3-4.379c-.029-.012-.059-.015-.088-.026a1.806,1.806,0,0,0-.217-.065c-.049-.01-.1-.02-.146-.026a1.7,1.7,0,0,0-.225-.014,1.365,1.365,0,0,0-.143,0,1.865,1.865,0,0,0-.232.037c-.046.01-.092.017-.137.03-.014,0-.028,0-.042.009a1.869,1.869,0,0,0-.209.093c-.027.014-.057.02-.084.034l-.012.009a1.763,1.763,0,0,0-.307.216c-.014.012-.025.028-.039.041a1.807,1.807,0,0,0-.207.23c-.024.033-.044.07-.066.1a1.826,1.826,0,0,0-.118.211c-.019.042-.035.086-.05.129a1.772,1.772,0,0,0-.066.226c-.006.025-.017.048-.022.074L37.746,92.315a1.751,1.751,0,0,0,1.429,2.021,1.78,1.78,0,0,0,.3.025A1.751,1.751,0,0,0,41.2,92.906l.836-4.88a25.692,25.692,0,0,0,46.39-5.3A1.751,1.751,0,0,0,87.3,80.521Z"/>
  <path fill="#FFFE" d="M89.207,54.819A1.752,1.752,0,0,0,87.152,56.2l-1.063,5.4a25.688,25.688,0,0,0-46.495,5.114A1.75,1.75,0,0,0,42.92,67.8a22.186,22.186,0,0,1,40.363-4.061l-6.151-2.817A1.75,1.75,0,1,0,75.675,64.1L86.03,68.847c.042.019.087.027.13.043s.081.029.123.041a1.755,1.755,0,0,0,.465.073l.01,0,.01,0a1.743,1.743,0,0,0,.479-.077.5.5,0,0,0,.056-.009,1.542,1.542,0,0,0,.161-.071c.03-.013.063-.019.093-.034.011-.006.019-.014.03-.02a1.685,1.685,0,0,0,.241-.161c.022-.016.046-.029.067-.047a1.726,1.726,0,0,0,.253-.267c.018-.024.031-.051.048-.076a1.821,1.821,0,0,0,.14-.237c.019-.04.033-.083.049-.124a1.827,1.827,0,0,0,.072-.228c.005-.02.015-.039.019-.06l2.11-10.719A1.75,1.75,0,0,0,89.207,54.819Z"/>
</svg>
